<svg xmlns="http://www.w3.org/2000/svg" xmlns:xlink="http://www.w3.org/1999/xlink" viewBox="0 0 43.31 36.72"><defs><style>.cls-1,.cls-2,.cls-5{fill:none;}.cls-1{clip-rule:evenodd;}.cls-2{stroke:#5c6bbf;stroke-linecap:round;stroke-width:2.33px;}.cls-2,.cls-5{stroke-linejoin:round;}.cls-3{clip-path:url(#clip-path);}.cls-4{fill:#cbeaf7;}.cls-5{stroke:#fff;stroke-linecap:square;stroke-width:2px;}</style><clipPath id="clip-path"><path class="cls-1" d="M20.14,19.1a3,3,0,1,0-3-3A3,3,0,0,0,20.14,19.1Zm6.69-6.91A7.5,7.5,0,1,0,23,25"/></clipPath></defs><title>Pivacidade2</title><g id="Layer_2" data-name="Layer 2"><g id="Layer_1-2" data-name="Layer 1"><path class="cls-2" d="M32.35,6.82A22.77,22.77,0,0,1,42.14,17.1a22.71,22.71,0,0,1-16,12.51"/><path class="cls-2" d="M21.65,30.05a22.67,22.67,0,0,1-20.49-13A22.7,22.7,0,0,1,28.64,5.24"/><g class="cls-3"><rect class="cls-4" x="9.14" y="5.1" width="25" height="25"/></g><path class="cls-2" d="M20.14,19.1a3,3,0,1,0-3-3A3,3,0,0,0,20.14,19.1Zm6.22-7.33A7.5,7.5,0,1,0,21.64,25.1q.35,0,.7,0"/><line class="cls-2" x1="20.37" y1="35.56" x2="30.38" y2="1.16"/><path class="cls-5" d="M32.35.28"/><path class="cls-5" d="M22.37,34.56"/></g></g></svg>