<svg xmlns="http://www.w3.org/2000/svg" xmlns:xlink="http://www.w3.org/1999/xlink" viewBox="0 0 43.38 43.38"><defs><style>.cls-1,.cls-2{fill:none;}.cls-2{stroke:#5c6bbf;stroke-linecap:round;stroke-linejoin:round;stroke-width:2.33px;}.cls-3{clip-path:url(#clip-path);}.cls-4{fill:#cbeaf7;}.cls-5{clip-path:url(#clip-path-2);}</style><clipPath id="clip-path"><circle class="cls-1" cx="31.29" cy="12.73" r="2.89"/></clipPath><clipPath id="clip-path-2"><circle class="cls-1" cx="12.29" cy="31.73" r="2.89"/></clipPath></defs><title>Settings1</title><g id="Layer_2" data-name="Layer 2"><g id="Layer_1-2" data-name="Layer 1"><path class="cls-2" d="M29.08,4.11c.22-1.71.41-2.95.41-2.95h3.39s.19,1.24.41,2.95A8.57,8.57,0,0,1,35.44,5c1.36-1,2.35-1.77,2.35-1.77l2.4,2.4s-.7,1-1.71,2.27a8.58,8.58,0,0,1,1,2.25c1.6.21,2.73.39,2.73.39v3.39s-1.07.16-2.59.37a8.57,8.57,0,0,1-1,2.51c.9,1.18,1.52,2,1.52,2l-2.4,2.4s-.8-.59-1.94-1.46a8.58,8.58,0,0,1-2.63,1.12c-.19,1.4-.34,2.36-.34,2.36H29.49s-.15-1-.34-2.36a8.58,8.58,0,0,1-2.63-1.12c-1.14.87-1.94,1.46-1.94,1.46l-2.4-2.4s.61-.84,1.52-2a8.57,8.57,0,0,1-1-2.51c-1.52-.2-2.59-.37-2.59-.37V10.49s1.13-.17,2.73-.39a8.57,8.57,0,0,1,1-2.25c-1-1.31-1.71-2.27-1.71-2.27l2.4-2.4s1,.73,2.35,1.77A8.57,8.57,0,0,1,29.08,4.11Z"/><path class="cls-2" d="M10.08,23.11c.22-1.71.41-2.95.41-2.95h3.39s.19,1.24.41,2.95a8.57,8.57,0,0,1,2.13.86c1.36-1,2.35-1.77,2.35-1.77l2.4,2.4s-.7,1-1.71,2.27a8.58,8.58,0,0,1,1,2.25c1.6.21,2.73.39,2.73.39v3.39s-1.07.16-2.59.37a8.57,8.57,0,0,1-1,2.51c.9,1.18,1.52,2,1.52,2l-2.4,2.4s-.8-.59-1.94-1.46a8.58,8.58,0,0,1-2.63,1.12c-.19,1.4-.34,2.36-.34,2.36H10.49s-.15-1-.34-2.36a8.58,8.58,0,0,1-2.63-1.12c-1.14.87-1.94,1.46-1.94,1.46l-2.4-2.4s.61-.84,1.52-2a8.57,8.57,0,0,1-1-2.51c-1.52-.2-2.59-.37-2.59-.37V29.49s1.13-.17,2.73-.39a8.57,8.57,0,0,1,1-2.25c-1-1.31-1.71-2.27-1.71-2.27l2.4-2.4s1,.73,2.35,1.77A8.57,8.57,0,0,1,10.08,23.11Z"/><g class="cls-3"><rect class="cls-4" x="23.4" y="4.84" width="15.79" height="15.79"/></g><circle class="cls-2" cx="31.29" cy="12.73" r="2.89"/><g class="cls-5"><rect class="cls-4" x="4.4" y="23.84" width="15.79" height="15.79"/></g><circle class="cls-2" cx="12.29" cy="31.73" r="2.89"/></g></g></svg>