<svg xmlns="http://www.w3.org/2000/svg" xmlns:xlink="http://www.w3.org/1999/xlink" viewBox="0 0 43.33 43.33"><defs><style>.cls-1,.cls-2{fill:none;}.cls-2{stroke:#5c6bbf;stroke-linecap:round;stroke-linejoin:round;stroke-width:2.33px;}.cls-3{clip-path:url(#clip-path);}.cls-4{fill:#cbeaf7;}</style><clipPath id="clip-path"><circle class="cls-1" cx="21.85" cy="22.67" r="5.38"/></clipPath></defs><title>Settings2</title><g id="Layer_2" data-name="Layer 2"><g id="Layer_1-2" data-name="Layer 1"><path class="cls-2" d="M17.74,6.64c.42-3.18.77-5.48.77-5.48h6.31s.35,2.3.77,5.48a15.93,15.93,0,0,1,4,1.59c2.52-1.94,4.37-3.29,4.37-3.29L38.39,9.4s-1.3,1.78-3.18,4.22a16,16,0,0,1,1.87,4.18c3,.39,5.08.72,5.08.72v6.31s-2,.3-4.81.68a15.92,15.92,0,0,1-1.78,4.67c1.68,2.2,2.82,3.75,2.82,3.75l-4.46,4.46s-1.48-1.09-3.6-2.71a16,16,0,0,1-4.88,2.09c-.35,2.6-.63,4.39-.63,4.39H18.51s-.27-1.79-.63-4.39A16,16,0,0,1,13,35.68C10.88,37.3,9.4,38.39,9.4,38.39L4.94,33.93s1.14-1.55,2.82-3.75A15.93,15.93,0,0,1,6,25.5c-2.83-.38-4.81-.68-4.81-.68V18.51s2.11-.32,5.08-.72a15.94,15.94,0,0,1,1.87-4.18C6.24,11.17,4.94,9.4,4.94,9.4L9.4,4.94s1.85,1.36,4.37,3.29A15.93,15.93,0,0,1,17.74,6.64Z"/><g class="cls-3"><rect class="cls-4" x="7.18" y="8" width="29.35" height="29.35"/></g><circle class="cls-2" cx="21.85" cy="22.67" r="5.38"/></g></g></svg>