<svg xmlns="http://www.w3.org/2000/svg" xmlns:xlink="http://www.w3.org/1999/xlink" viewBox="0 0 73.77 57"><defs><style>.cls-1,.cls-4,.cls-6{fill:#cbeaf7;}.cls-1,.cls-2{clip-rule:evenodd;}.cls-13,.cls-2,.cls-3,.cls-8,.cls-9{fill:none;}.cls-2,.cls-8,.cls-9{stroke:#5c6bbf;stroke-width:2.33px;}.cls-13,.cls-2,.cls-8,.cls-9{stroke-linecap:round;stroke-linejoin:round;}.cls-4,.cls-9{fill-rule:evenodd;}.cls-5{clip-path:url(#clip-path);}.cls-7{clip-path:url(#clip-path-2);}.cls-10{clip-path:url(#clip-path-3);}.cls-11{clip-path:url(#clip-path-4);}.cls-12{clip-path:url(#clip-path-5);}.cls-13{stroke:#5c6bc0;stroke-width:2.33px;}</style><clipPath id="clip-path"><path class="cls-1" d="M38,14.16A14.33,14.33,0,0,0,24.38,5C16.44,5,10,11,10,18.5v5C10,31,16.44,37,24.38,37h-.47V18S33.1,14.92,38,14.16Z"/></clipPath><clipPath id="clip-path-2"><path class="cls-2" d="M9,19a15,15,0,1,1,30,0v3A15,15,0,1,1,9,22Z"/></clipPath><clipPath id="clip-path-3"><path class="cls-1" d="M5,44.75a6.18,6.18,0,0,1,6.75-6.25l6.75.5L26,50,5,52Z"/></clipPath><clipPath id="clip-path-4"><path class="cls-2" d="M5,45a7,7,0,0,1,7-7H35a7,7,0,0,1,7,7v7H5Z"/></clipPath><clipPath id="clip-path-5"><rect class="cls-3" x="30.5" y="2.31" width="43.27" height="50.15"/></clipPath></defs><title>UserDashboard</title><g id="Layer_2" data-name="Layer 2"><g id="Layer_1-2" data-name="Layer 1"><path class="cls-4" d="M38,14.16A14.33,14.33,0,0,0,24.38,5C16.44,5,10,11,10,18.5v5C10,31,16.44,37,24.38,37h-.47V18S33.1,14.92,38,14.16Z"/><g class="cls-5"><rect class="cls-6" x="4.67" width="38.65" height="42"/></g><g class="cls-7"><path class="cls-8" d="M9,19a15,15,0,1,1,30,0v3A15,15,0,1,1,9,22Z"/></g><path class="cls-9" d="M9,19a15,15,0,1,1,30,0v3A15,15,0,1,1,9,22Z"/><path class="cls-8" d="M30,25a2,2,0,0,0-4,0"/><path class="cls-8" d="M21,25a2,2,0,0,0-4,0"/><path class="cls-8" d="M10,19a8.7,8.7,0,0,1,9-1.5c5.5,2,17-3.5,18-3.5"/><path class="cls-4" d="M5,44.75a6.18,6.18,0,0,1,6.75-6.25l6.75.5L26,50,5,52Z"/><g class="cls-10"><rect class="cls-6" y="33.48" width="31" height="23.52"/></g><g class="cls-11"><path class="cls-8" d="M5,45a7,7,0,0,1,7-7H35a7,7,0,0,1,7,7v7H5Z"/></g><path class="cls-9" d="M5,45a7,7,0,0,1,7-7H35a7,7,0,0,1,7,7v7H5Z"/><polygon class="cls-8" points="24 47 18 39 30 39 24 47"/><rect class="cls-6" x="47.7" y="31.74" width="8.86" height="20.72"/><rect class="cls-6" x="64.91" y="16.4" width="8.86" height="36.06"/><g class="cls-12"><line class="cls-13" x1="44.36" y1="25.36" x2="66.21" y2="3.51"/><polyline class="cls-13" points="58.8 3.79 66.21 3.52 65.94 10.93"/></g></g></g></svg>