<svg xmlns="http://www.w3.org/2000/svg" xmlns:xlink="http://www.w3.org/1999/xlink" viewBox="0 0 43.31 28.24"><defs><style>.cls-1,.cls-2{fill:none;}.cls-1{clip-rule:evenodd;}.cls-2{stroke:#5c6bbf;stroke-linecap:round;stroke-linejoin:round;stroke-width:2.33px;}.cls-3{clip-path:url(#clip-path);}.cls-4{fill:#cbeaf7;}</style><clipPath id="clip-path"><path class="cls-1" d="M20.14,16.12a3,3,0,1,0-3-3A3,3,0,0,0,20.14,16.12Zm1.5,6a7.5,7.5,0,1,0-7.5-7.5A7.5,7.5,0,0,0,21.64,22.12Z"/></clipPath></defs><title>Privacidade</title><g id="Layer_2" data-name="Layer 2"><g id="Layer_1-2" data-name="Layer 1"><path class="cls-2" d="M42.14,14.12a22.68,22.68,0,0,1-41,0,22.68,22.68,0,0,1,41,0Z"/><g class="cls-3"><rect class="cls-4" x="9.14" y="2.12" width="25" height="25"/></g><path class="cls-2" d="M20.14,16.12a3,3,0,1,0-3-3A3,3,0,0,0,20.14,16.12Zm1.5,6a7.5,7.5,0,1,0-7.5-7.5A7.5,7.5,0,0,0,21.64,22.12Z"/></g></g></svg>