<svg class="menu-icon projects-svg" xmlns="http://www.w3.org/2000/svg" xmlns:xlink="http://www.w3.org/1999/xlink" viewBox="0 0 51.88 42.16"><defs><style>.cls-1,.cls-2{fill:none;}.cls-1{clip-rule:evenodd;}.cls-2{stroke:#5c6bbf;stroke-linecap:round;stroke-linejoin:round;stroke-width:2.33px;}.cls-3{clip-path:url(#clip-path);}.cls-4{fill:#cbeaf7;}.cls-5{clip-path:url(#clip-path-2);}.cls-6{clip-path:url(#clip-path-3);}</style><clipPath id="clip-path"><path class="cls-1" d="M43.58,9.42c1.83-1.25,3.31-.47,3.31,1.74v22a4,4,0,0,1-4,4h-36c-2.21,0-2.53-1-.69-2.25Z"/></clipPath><clipPath id="clip-path-2"><rect class="cls-2" x="2.88" y="7.16" width="44" height="30" rx="4" ry="4"/></clipPath><clipPath id="clip-path-3"><rect class="cls-2" x="9.88" y="1.16" width="14" height="6"/></clipPath></defs><title>Projects2</title><g id="Layer_2" data-name="Layer 2"><g id="Layer_1-2" data-name="Layer 1"><g class="cls-3"><rect class="cls-4" y="3.83" width="51.88" height="38.34"/></g><g class="cls-5"><rect class="cls-2" x="2.88" y="7.16" width="44" height="30" rx="4" ry="4"/></g><rect class="cls-2" x="2.88" y="7.16" width="44" height="30" rx="4" ry="4"/><g class="cls-6"><rect class="cls-2" x="9.88" y="1.16" width="14" height="6"/></g><rect class="cls-2" x="9.88" y="1.16" width="14" height="6"/><line class="cls-2" x1="41.88" y1="13.16" x2="29.84" y2="13.16"/><line class="cls-2" x1="41.88" y1="17.16" x2="23.88" y2="17.16"/><line class="cls-2" x1="41.88" y1="21.16" x2="26.85" y2="21.16"/></g></g></svg>