<?xml version="1.0" standalone="no"?>
<!DOCTYPE svg PUBLIC "-//W3C//DTD SVG 20010904//EN"
 "http://www.w3.org/TR/2001/REC-SVG-20010904/DTD/svg10.dtd">
<svg version="1.0" xmlns="http://www.w3.org/2000/svg"
 width="514.000000pt" height="514.000000pt" viewBox="0 0 514.000000 514.000000"
 preserveAspectRatio="xMidYMid meet">
<metadata>
Created by potrace 1.11, written by Peter Selinger 2001-2013
</metadata>
<g transform="translate(0.000000,514.000000) scale(0.100000,-0.100000)"
fill="#000000" stroke="none">
<path d="M1310 3629 c-130 -25 -269 -142 -324 -273 -25 -61 -28 -82 -33 -228
l-5 -138 -26 0 c-44 0 -129 -26 -175 -53 -81 -48 -155 -144 -190 -249 -5 -15
-19 -18 -76 -18 -68 0 -69 1 -89 34 -30 51 -101 89 -165 88 -62 0 -92 -11
-136 -48 -87 -73 -94 -209 -16 -290 87 -89 220 -84 304 12 34 38 37 39 102 40
l67 1 17 -46 c50 -134 168 -244 286 -266 67 -12 74 -13 87 -14 9 -1 12 -36 12
-138 0 -151 12 -211 56 -300 34 -67 114 -149 181 -185 110 -60 54 -58 1388
-58 786 0 1236 4 1264 11 112 25 235 116 289 212 53 94 65 149 67 305 1 78 4
144 7 147 2 2 22 7 44 10 77 12 114 26 176 68 72 48 131 121 154 190 17 51 16
51 114 48 30 -1 57 -7 59 -13 8 -22 76 -78 109 -89 56 -18 137 -7 184 27 57
40 83 94 83 171 0 52 -5 68 -31 105 -61 88 -175 117 -265 67 -24 -13 -53 -39
-64 -56 -20 -32 -21 -32 -97 -33 -65 0 -78 3 -78 16 0 9 -13 44 -30 79 -56
117 -180 207 -310 222 -25 3 -47 7 -49 9 -2 2 -5 64 -7 136 -3 148 -19 212
-75 300 -63 97 -180 176 -298 198 -67 13 -2445 12 -2511 -1z m-360 -1045 l0
-206 -37 6 c-94 17 -167 107 -165 204 2 106 78 185 195 201 4 1 7 -92 7 -205z
m3339 187 c50 -26 98 -82 106 -123 12 -65 12 -74 -1 -117 -22 -73 -112 -146
-172 -139 l-26 3 -1 198 0 197 28 0 c15 0 45 -9 66 -19z m-4025 -97 c28 -7 59
-58 58 -95 -2 -60 -62 -107 -120 -94 -62 13 -97 88 -67 145 17 32 69 63 93 55
8 -3 24 -8 36 -11z m4728 -13 c93 -83 -28 -227 -126 -150 -51 40 -50 118 1
159 38 29 86 26 125 -9z"/>
</g>
</svg>
